<mxfile host="app.diagrams.net" modified="2023-12-25T02:02:51.586Z" agent="Mozilla/5.0 (Macintosh; Intel Mac OS X 10_15_7) AppleWebKit/537.36 (KHTML, like Gecko) Chrome/120.0.0.0 Safari/537.36" version="22.1.11" etag="eKa_THHlWYnNZXZNaxbx" type="github">
  <diagram name="Page-1" id="9Yc-tKIoXdwYBSXb0uP9">
    <mxGraphModel>
      <root>
        <mxCell id="0" />
        <mxCell id="1" parent="0" />
      </root>
    </mxGraphModel>
  </diagram>
</mxfile>
